<svg xmlns="http://www.w3.org/2000/svg" width="69.99" height="36.897" viewBox="0 0 69.99 36.897">
  <g id="Логотип_медиа" data-name="Логотип медиа" transform="translate(-7082.009 -951.072)">
    <g id="Сгруппировать_761" data-name="Сгруппировать 761">
      <path id="Контур_1040" data-name="Контур 1040" d="M7132.344,975.147a1.66,1.66,0,0,1-1.245.558c-2.072-.008-7.918-.024-10.635,0a.809.809,0,0,1-.78-.883c-.013-.854-.007-1.643-.007-2.8,0-.736.159-.988.949-.976,3.184.047,6.369.02,9.554.02.251,0,.5,0,.752,0,.433-.007.819-.08.829-.636s-.345-.664-.794-.667c-.326,0-.652-.01-.978-.01-2.541,0-7.743.014-9.621.019a.694.694,0,0,1-.7-.7v-3.165a.7.7,0,0,1,.685-.7c1.948-.025,7.552-.1,10.363-.1.41,0,.828.008,1.011-.456.239-.607-.1-1.05-.833-1.056-1.805-.013-8.588,0-10.624,0a.581.581,0,0,1-.582-.581l0-3.421a.582.582,0,0,1,.578-.582l10.45-.059a1.429,1.429,0,0,1,1.058.479q2.052,2.043,4.1,4.088a1.613,1.613,0,0,1,.5,1.211c-.008,1.73-.012,3.46,0,5.19a2.02,2.02,0,0,1-.5,1.205C7135.625,971.445,7133.365,974,7132.344,975.147Z" fill="#1a1a1a"/>
      <path id="Контур_1041" data-name="Контур 1041" d="M7105.866,965.12q2.6,0,5.193,0c.527,0,.954-.1.963-.759s-.431-.758-.955-.758c-3.411,0-6.823-.022-10.234.014-.714.008-.9-.222-.868-.9.05-1.051.033-2.107,0-3.159-.013-.473.163-.6.611-.595q5.191.022,10.385,0a1.42,1.42,0,0,1,1.061.468q2.054,2.044,4.1,4.088a1.685,1.685,0,0,1,.513,1.283c-.014,1.38-.031,2.76.007,4.139.017.62-.181.822-.811.817-3.286-.026-6.572-.013-9.858-.01a6.747,6.747,0,0,0-.9.036c-.358.049-.493.3-.488.647a.534.534,0,0,0,.461.591,4.572,4.572,0,0,0,.75.038c3.286,0,6.572.021,9.858-.013.734-.007,1.046.161.992.957-.067,1-.034,2.006-.009,3.009.012.46-.1.681-.617.679q-5.154-.027-10.309-.006a1.348,1.348,0,0,1-.992-.445q-2.124-2.081-4.258-4.148a1.512,1.512,0,0,1-.5-1.2c.027-1.354.032-2.71,0-4.063-.015-.549.127-.743.707-.73,1.73.038,3.461.013,5.192.013Z" fill="#1a1a1a"/>
      <path id="Контур_1042" data-name="Контур 1042" d="M7090.386,975.693c-2.557,0-5.114-.011-7.672.009-.5,0-.719-.118-.7-.665.037-1.052.039-2.107,0-3.158-.024-.61.155-.843.8-.824,1.4.044,2.808-.01,4.212.021.747.017,1.043-.3,1.037-1.028-.016-1.8.007-3.61-.012-5.415-.009-.873-.185-1.02-1.1-1.025-1.4-.008-2.808-.018-4.212.006-.495.008-.74-.112-.726-.665.03-1.127.025-2.256,0-3.384-.011-.465.162-.6.614-.6,1.454.022,2.908.02,4.362,0a1.382,1.382,0,0,1,1.056.471c1.341,1.353,2.684,2.7,4.044,4.037a1.7,1.7,0,0,1,.534,1.335c-.024,1.755,0,3.51-.012,5.265-.007.7.282,1,.986.994,1.454-.019,2.909.026,4.362-.016.641-.019.822.207.8.82-.043,1.026-.052,2.057,0,3.082.032.626-.209.75-.774.745C7095.451,975.679,7092.919,975.693,7090.386,975.693Z" fill="#1a1a1a"/>
    </g>
    <text id="взяли_" data-name="взяли!" transform="matrix(0.961, -0.277, 0.277, 0.961, 7100.745, 983.94)" fill="#fe1f0d" stroke="#fe1f0d" stroke-miterlimit="10" stroke-width="0.151" font-size="17.804" font-family="SegoeUI, Segoe UI"><tspan x="0" y="0">взяли!</tspan></text>
  </g>
</svg>
