<svg xmlns="http://www.w3.org/2000/svg" width="904" height="68.896" viewBox="0 0 904 68.896">
  <g id="Лого" transform="translate(-7303.973 -366.5)">
    <path id="Контур_1018" data-name="Контур 1018" d="M7927.383,374.851v58.457h12.527v-56.37h8.351v56.37h12.527v-56.37h8.351v56.37h12.526V366.5h-54.282Z" transform="translate(-15.871 0)" fill="#1a1a1a"/>
    <path id="Контур_1019" data-name="Контур 1019" d="M7468.93,374.851v58.457h12.526v-56.37h25.053v56.37h12.527v-56.37h25.053v56.37h12.527V366.5H7468.93Z" transform="translate(-4.2 0)" fill="#1a1a1a"/>
    <path id="Контур_1020" data-name="Контур 1020" d="M7776.222,366.5h-33.4l-12.527,66.809h12.527l2.349-12.527h31.055v12.527h12.526V366.5h-12.526Zm0,43.843h-29.1l6.264-33.4h22.834Z" transform="translate(-10.854 0)" fill="#1a1a1a"/>
    <path id="Контур_1021" data-name="Контур 1021" d="M8227.1,366.5h-77.247l-12.527,66.809h12.527l2.348-12.527h64.459v12.527h12.526V366.5Zm-10.439,43.843h-62.5l6.263-33.4h56.239Z" transform="translate(-21.217 0)" fill="#1a1a1a"/>
    <path id="Контур_1022" data-name="Контур 1022" d="M7825.931,366.5h-16.7L7796.7,433.308h12.527l10.438-56.37h6.264v56.37h12.526V366.5h-12.526Z" transform="translate(-12.544 0)" fill="#1a1a1a"/>
    <path id="Контур_1023" data-name="Контур 1023" d="M8117.394,366.5l-6.264,27.141h-6.263V366.5H8092.34v66.808h12.527V404.08h6.263l6.264,29.229h12.526l-8.351-33.4,8.351-33.4Z" transform="translate(-20.071 0)" fill="#1a1a1a"/>
    <path id="Контур_1024" data-name="Контур 1024" d="M7695.306,366.5l-10.438,56.37h-4.176V366.5h-12.527v66.808h27.141l10.439-56.37h4.176v56.37h12.526V366.5h-27.141Z" transform="translate(-9.272 0)" fill="#1a1a1a"/>
    <path id="Контур_1025" data-name="Контур 1025" d="M7993.794,366.5v66.808h87.686V422.87h-75.159V404.08h70.984V393.641h-70.984v-16.7h75.159V366.5h-87.686Z" transform="translate(-17.563 0)" fill="#1a1a1a"/>
    <path id="Контур_1026" data-name="Контур 1026" d="M7374.957,366.5l-18.79,56.37h-2.088l-18.79-56.37h-31.316v66.808H7316.5v-56.37h8.351l18.79,56.37h22.965l18.79-56.37h8.351v56.37h12.526V366.5h-31.316Z" transform="translate(0 0)" fill="#1a1a1a"/>
    <path id="Контур_1027" data-name="Контур 1027" d="M7444.6,366.5h-16.7l-12.527,66.809H7427.9l2.349-12.527H7444.6v12.527h12.527V366.5H7444.6Zm0,43.843h-12.4l6.263-33.4h6.133Z" transform="translate(-2.836 0)" fill="#1a1a1a"/>
    <path id="Контур_1028" data-name="Контур 1028" d="M7569.619,366.5v66.808h33.4V422.87h-20.877V404.08h18.441V393.641h-18.441v-16.7h20.877V366.5h-33.4Z" transform="translate(-6.763 0)" fill="#1a1a1a"/>
    <path id="Контур_1029" data-name="Контур 1029" d="M7882.566,366.5a34.448,34.448,0,1,0,34.448,34.448A34.448,34.448,0,0,0,7882.566,366.5Zm0,56.369a21.921,21.921,0,1,1,21.921-21.921A21.947,21.947,0,0,1,7882.566,422.869Z" transform="translate(-13.854 0)" fill="#1a1a1a"/>
    <path id="Контур_1030" data-name="Контур 1030" d="M7636.474,366.5h-24.009v66.809h12.526v-18.79h11.482a24.009,24.009,0,1,0,0-48.019Zm0,35.492h-11.482V379.027h11.482a11.483,11.483,0,1,1,0,22.965Z" transform="translate(-7.854 0)" fill="#1a1a1a"/>
  </g>
</svg>
